<?xml version="1.0" standalone="no"?>
<!DOCTYPE svg PUBLIC "-//W3C//DTD SVG 20010904//EN"
 "http://www.w3.org/TR/2001/REC-SVG-20010904/DTD/svg10.dtd">
<svg version="1.0" xmlns="http://www.w3.org/2000/svg"
 width="567.000000pt" height="567.000000pt" viewBox="0 0 567.000000 567.000000"
 preserveAspectRatio="xMidYMid meet">
<metadata>
Created by potrace 1.11, written by Peter Selinger 2001-2013
</metadata>
<g transform="translate(0.000000,567.000000) scale(0.100000,-0.100000)"
fill="#000000" stroke="none">
<path d="M0 3431 l0 -51 200 0 c109 0 223 -5 252 -11 98 -20 196 -75 272 -151
l69 -69 -38 -32 c-21 -18 -56 -45 -77 -60 l-38 -29 0 46 c0 53 -26 88 -59 79
-37 -9 -44 -30 -43 -122 l0 -89 -39 -32 -39 -31 0 166 c0 96 -4 175 -10 186
-13 23 -62 26 -80 4 -10 -12 -13 -70 -13 -223 l0 -207 -36 -35 -36 -35 -3 120
c-2 93 -6 123 -19 137 -21 24 -46 23 -68 -2 -16 -18 -18 -39 -18 -179 l1 -159
-39 -32 -39 -31 0 300 c0 259 -2 302 -16 315 -18 19 -38 20 -65 6 -18 -10 -19
-26 -19 -421 l0 -411 24 19 c43 33 571 458 576 464 3 3 75 61 160 129 85 68
157 126 160 129 3 4 61 51 130 105 200 158 212 173 170 211 -21 19 -58 15 -82
-8 -7 -7 -70 -59 -141 -115 l-127 -103 -33 37 c-87 101 -179 165 -293 204 -64
22 -87 24 -306 28 l-238 4 0 -51z"/>
<path d="M1300 2866 l0 -395 193 2 192 3 67 31 c93 44 151 101 196 192 34 70
37 83 37 167 0 84 -2 95 -38 166 -44 89 -113 158 -197 196 -51 23 -68 25 -252
29 l-198 4 0 -395z m365 191 c21 -12 53 -41 69 -65 26 -37 31 -54 34 -115 3
-88 -23 -147 -84 -189 -42 -30 -114 -48 -154 -38 l-25 6 0 199 c-1 110 1 207
3 216 5 22 106 13 157 -14z"/>
<path d="M2305 3250 c-5 -8 -98 -246 -121 -310 -7 -19 -49 -129 -93 -243 -45
-115 -81 -212 -81 -217 0 -4 48 -7 107 -6 l107 1 26 65 26 65 142 3 141 3 7
-28 c4 -16 15 -46 25 -69 l17 -41 103 -1 c57 0 106 1 111 4 4 3 3 13 -2 22 -6
9 -69 175 -141 367 -71 193 -134 360 -139 372 -9 22 -15 23 -120 22 -60 0
-112 -4 -115 -9z m158 -372 l36 -108 -27 -1 c-67 -2 -124 0 -128 4 -3 3 12 55
33 116 21 61 40 107 44 103 4 -4 22 -55 42 -114z"/>
<path d="M2798 3248 c-2 -7 -4 -47 -4 -88 1 -85 -9 -77 104 -79 l62 -1 0 -304
0 -304 103 2 102 1 1 300 2 300 83 5 84 5 1 75 c0 41 -1 80 -4 87 -5 17 -528
18 -534 1z"/>
<path d="M3525 3056 c-158 -409 -197 -512 -210 -547 l-13 -37 108 0 109 0 27
69 27 70 140 -3 140 -3 25 -67 24 -66 107 1 c97 2 106 4 103 21 -2 10 -46 131
-98 270 -53 138 -116 306 -141 373 l-46 122 -112 0 -113 -1 -77 -202z m230
-169 c20 -60 35 -110 33 -112 -4 -4 -62 -7 -115 -6 l-42 1 35 103 c44 130 44
131 49 126 2 -2 20 -53 40 -112z"/>
<path d="M4140 3252 c0 -10 27 -84 90 -247 86 -223 109 -284 140 -365 42 -114
83 -211 86 -208 1 2 25 64 54 138 28 74 62 162 75 195 95 245 185 483 185 488
0 4 -21 6 -48 6 l-47 -2 -29 -76 c-15 -42 -39 -103 -51 -136 -13 -33 -49 -131
-81 -219 -42 -116 -60 -153 -65 -140 -5 11 -54 143 -111 294 l-103 275 -48 3
c-26 2 -47 -1 -47 -6z"/>
<path d="M4880 2866 l0 -394 45 0 45 0 0 394 0 394 -45 0 -45 0 0 -394z"/>
<path d="M5150 3217 l0 -42 176 0 c96 0 179 -2 183 -5 4 -3 -86 -158 -201
-345 -114 -187 -208 -343 -208 -346 0 -4 126 -7 280 -7 l280 0 0 43 0 43 -201
1 c-111 0 -203 2 -205 3 -3 4 -1 7 228 383 91 149 170 280 177 292 l11 23
-260 -1 -260 0 0 -42z"/>
<path d="M903 3004 c-39 -32 -41 -36 -32 -67 16 -56 8 -176 -17 -255 -53 -163
-168 -284 -325 -343 -76 -29 -113 -33 -332 -33 l-197 -1 0 -54 0 -53 227 4
c213 5 233 7 309 32 303 98 489 403 437 713 -8 43 -17 81 -21 85 -4 4 -26 -9
-49 -28z"/>
</g>
</svg>
